# xmcd
#
# Track frame offsets:
#	150
#	12490
#	27750
#	45250
#	61740
#	75860
#	91380
#	105450
#	118650
#	133840
#
# Disc length: 2023 seconds
#
# Revision: 0
# Processed by: cddbd v1.5.1PL0 Copyright (c) Steve Scherf et al.
# Submitted via: dBpowerAMP V4.0
#
DISCID=6d07e50a
DTITLE=Pam Tillis - Put Yourself In My Place
DYEAR=1990
DGENRE=Country
TTITLE0=Put Yourself In My Place
TTITLE1=Melancholy Child
TTITLE2=Maybe It Was Memphis
TTITLE3=Blue Rose Is
TTITLE4=Don't Tell Me What
TTITLE5=One Of Those Things
TTITLE6=Draggin' My Chains
TTITLE7=Ancient History
TTITLE8=I've Seen Enough To Know
TTITLE9=Already Fallen
EXTD=
EXTT0=
EXTT1=
EXTT2=
EXTT3=
EXTT4=
EXTT5=
EXTT6=
EXTT7=
EXTT8=
EXTT9=
PLAYORDER=
